<?xml version="1.0" encoding="UTF-8" standalone="no"?>
<svg width="512px" height="512px" viewBox="0 0 512 512" version="1.1" xmlns="http://www.w3.org/2000/svg" xmlns:xlink="http://www.w3.org/1999/xlink" xmlns:sketch="http://www.bohemiancoding.com/sketch/ns">
    <!-- Generator: Sketch 3.3.2 (12043) - http://www.bohemiancoding.com/sketch -->
    <title>iTunesArtwork</title>
    <desc>Created with Sketch.</desc>
    <defs>
        <path id="path-1" d="M178.504533,0 L333.495467,0 C384.896,0 410.589867,0 438.2592,8.74666667 C468.4672,19.7418667 492.258133,43.5328 503.253333,73.7408 C512,101.405867 512,127.108267 512,178.504533 L512,333.495467 C512,384.896 512,410.589867 503.253333,438.2592 C492.258133,468.4672 468.4672,492.258133 438.2592,503.249067 C410.589867,512 384.896,512 333.495467,512 L178.504533,512 C127.104,512 101.405867,512 73.7408,503.249067 C43.5328,492.258133 19.7418667,468.4672 8.74666667,438.2592 C0,410.589867 0,384.896 0,333.495467 L0,178.504533 C0,127.108267 0,101.405867 8.74666667,73.7408 C19.7418667,43.5328 43.5328,19.7418667 73.7408,8.74666667 C101.405867,0 127.104,0 178.504533,0 L178.504533,0"></path>
    </defs>
    <g id="Page-1" stroke="none" stroke-width="1" fill="none" fill-rule="evenodd" sketch:type="MSPage">
        <g id="iTunesArtwork" sketch:type="MSArtboardGroup">
            <mask id="mask-2" sketch:name="Mask" fill="white">
                <use xlink:href="#path-1"></use>
            </mask>
            <use id="Mask" fill="#D7D7D7" sketch:type="MSShapeGroup" xlink:href="#path-1"></use>
            <rect id="Background" fill="#151719" sketch:type="MSShapeGroup" mask="url(#mask-2)" x="0" y="0" width="512" height="512"></rect>
            <g id="Circle-Outline" sketch:type="MSLayerGroup" mask="url(#mask-2)">
                <g transform="translate(55.000000, 56.000000)" id="Shape" sketch:type="MSShapeGroup">
                    <path d="M201,400 C311.45695,400 401,310.45695 401,200 C401,89.54305 311.45695,0 201,0 C90.54305,0 1,89.54305 1,200 C1,310.45695 90.54305,400 201,400 L201,400 Z M201,340 C123.680135,340 61,277.319865 61,200 C61,122.680135 123.680135,60 201,60 C278.319865,60 341,122.680135 341,200 C341,277.319865 278.319865,340 201,340 L201,340 Z" opacity="0.1" fill="#FFFFFF"></path>
                    <path d="M0.971702018,199.971957 C0.93912408,234.823206 10.0042494,269.185656 27.7949192,300 L79.7564435,270 C67.2770008,248.384971 60.9488959,224.397527 60.9716758,200.028043 L0.971702018,199.971957 L0.971702018,199.971957 Z" fill="#FF4700"></path>
                    <path d="M26.0341555,296.937354 C42.901883,327.434738 67.4896666,353.093954 97.9888275,371.419698 L128.891112,319.98966 C107.497172,307.134884 90.3331427,289.222919 78.5385061,267.897844 L26.0341555,296.937354 L26.0341555,296.937354 Z" fill="#3D5166"></path>
                    <path d="M374.1626,300.024237 C391.616438,269.858459 400.947034,235.567142 400.947034,199.985802 L340.947034,199.985802 C340.947034,224.944687 334.433611,248.882476 322.229141,269.975678 L374.1626,300.024237 L374.1626,300.024237 Z" fill="#FF4700"></path>
                    <path d="M303.95515,371.447824 C333.84528,353.526029 358.630763,328.05773 375.880939,296.937589 L323.403757,267.849012 C311.303449,289.678545 294.001411,307.457236 273.100954,319.988922 L303.95515,371.447824 L303.95515,371.447824 Z" fill="#3D5166"></path>
                    <path d="M401,200 C401,89.54305 311.45695,0 201,0 C90.54305,0 1,89.54305 1,200 L61,200 C61,122.680135 123.680135,60 201,60 C278.319865,60 341,122.680135 341,200 L401,200 L401,200 Z" fill="#FFFFFF"></path>
                </g>
            </g>
        </g>
    </g>
</svg>