<?xml version="1.0" encoding="UTF-8" standalone="no"?>
<svg width="128px" height="128px" viewBox="0 0 128 128" version="1.1" xmlns="http://www.w3.org/2000/svg" xmlns:xlink="http://www.w3.org/1999/xlink" xmlns:sketch="http://www.bohemiancoding.com/sketch/ns">
    <!-- Generator: Sketch 3.3.1 (12005) - http://www.bohemiancoding.com/sketch -->
    <title>App Icon</title>
    <desc>Created with Sketch.</desc>
    <defs></defs>
    <g id="Page-1" stroke="none" stroke-width="1" fill="none" fill-rule="evenodd" sketch:type="MSPage">
        <g id="Mobile" sketch:type="MSArtboardGroup" transform="translate(-123.000000, -80.000000)">
            <g id="Intro" sketch:type="MSLayerGroup">
                <g id="App-Icon" transform="translate(123.000000, 80.000000)" sketch:type="MSShapeGroup">
                    <path d="M44.6261333,0 L83.3738667,0 C96.224,0 102.647467,0 109.5648,2.18666667 C117.1168,4.93546667 123.064533,10.8832 125.813333,18.4352 C128,25.3514667 128,31.7770667 128,44.6261333 L128,83.3738667 C128,96.224 128,102.647467 125.813333,109.5648 C123.064533,117.1168 117.1168,123.064533 109.5648,125.812267 C102.647467,128 96.224,128 83.3738667,128 L44.6261333,128 C31.776,128 25.3514667,128 18.4352,125.812267 C10.8832,123.064533 4.93546667,117.1168 2.18666667,109.5648 C0,102.647467 0,96.224 0,83.3738667 L0,44.6261333 C0,31.7770667 0,25.3514667 2.18666667,18.4352 C4.93546667,10.8832 10.8832,4.93546667 18.4352,2.18666667 C25.3514667,0 31.776,0 44.6261333,0 L44.6261333,0" id="Mask" fill="#151719"></path>
                    <g id="Circle-Outline" transform="translate(13.750000, 14.000000)">
                        <path d="M50.25,100 C77.8642375,100 100.25,77.6142375 100.25,50 C100.25,22.3857625 77.8642375,0 50.25,0 C22.6357625,0 0.25,22.3857625 0.25,50 C0.25,77.6142375 22.6357625,100 50.25,100 L50.25,100 Z M50.25,85 C30.9200338,85 15.25,69.3299662 15.25,50 C15.25,30.6700338 30.9200338,15 50.25,15 C69.5799662,15 85.25,30.6700338 85.25,50 C85.25,69.3299662 69.5799662,85 50.25,85 L50.25,85 Z" id="Shape" opacity="0.1" fill="#FFFFFF"></path>
                        <path d="M0.242925504,49.9929892 C0.23478102,58.7058015 2.50106235,67.296414 6.94872981,75 L19.9391109,67.5 C16.8192502,62.0962428 15.237224,56.0993818 15.242919,50.0070108 L0.242925504,49.9929892 L0.242925504,49.9929892 Z" id="Shape" fill="#FF4700"></path>
                        <path d="M6.50853887,74.2343386 C10.7254708,81.8586844 16.8724166,88.2734884 24.4972069,92.8549246 L32.222778,79.9974151 C26.8742929,76.783721 22.5832857,72.3057297 19.6346265,66.974461 L6.50853887,74.2343386 L6.50853887,74.2343386 Z" id="Shape" fill="#3D5166"></path>
                        <path d="M93.5406499,75.0060593 C97.9041094,67.4646147 100.236758,58.8917854 100.236758,49.9964505 L85.2367584,49.9964505 C85.2367584,56.2361719 83.6084028,62.2206189 80.5572853,67.4939195 L93.5406499,75.0060593 L93.5406499,75.0060593 Z" id="Shape" fill="#FF4700"></path>
                        <path d="M75.9887874,92.8619561 C83.4613199,88.3815072 89.6576908,82.0144324 93.9702348,74.2343972 L80.8509392,66.9622529 C77.8258622,72.4196362 73.5003528,76.864309 68.2752385,79.9972305 L75.9887874,92.8619561 L75.9887874,92.8619561 Z" id="Shape" fill="#3D5166"></path>
                        <path d="M100.25,50 C100.25,22.3857625 77.8642375,0 50.25,0 C22.6357625,0 0.25,22.3857625 0.25,50 L15.25,50 C15.25,30.6700338 30.9200338,15 50.25,15 C69.5799662,15 85.25,30.6700338 85.25,50 L100.25,50 L100.25,50 Z" id="Shape" fill="#FFFFFF"></path>
                    </g>
                </g>
            </g>
        </g>
    </g>
</svg>