<?xml version="1.0" encoding="UTF-8" standalone="no"?>
<svg width="96px" height="96px" viewBox="0 0 96 96" version="1.1" xmlns="http://www.w3.org/2000/svg" xmlns:xlink="http://www.w3.org/1999/xlink" xmlns:sketch="http://www.bohemiancoding.com/sketch/ns">
    <!-- Generator: Sketch 3.3.1 (12005) - http://www.bohemiancoding.com/sketch -->
    <title>app-icon</title>
    <desc>Created with Sketch.</desc>
    <defs></defs>
    <g id="Page-1" stroke="none" stroke-width="1" fill="none" fill-rule="evenodd" sketch:type="MSPage">
        <g id="Mobile" sketch:type="MSArtboardGroup" transform="translate(-139.000000, -64.000000)">
            <g id="Intro" sketch:type="MSLayerGroup">
                <g id="app-icon" transform="translate(139.000000, 64.000000)" sketch:type="MSShapeGroup">
                    <path d="M33.4696,0 L62.5304,0 C72.168,0 76.9856,0 82.1736,1.64 C87.8376,3.7016 92.2984,8.1624 94.36,13.8264 C96,19.0136 96,23.8328 96,33.4696 L96,62.5304 C96,72.168 96,76.9856 94.36,82.1736 C92.2984,87.8376 87.8376,92.2984 82.1736,94.3592 C76.9856,96 72.168,96 62.5304,96 L33.4696,96 C23.832,96 19.0136,96 13.8264,94.3592 C8.1624,92.2984 3.7016,87.8376 1.64,82.1736 C0,76.9856 0,72.168 0,62.5304 L0,33.4696 C0,23.8328 0,19.0136 1.64,13.8264 C3.7016,8.1624 8.1624,3.7016 13.8264,1.64 C19.0136,0 23.832,0 33.4696,0 L33.4696,0" id="Mask" fill="#151719"></path>
                    <rect id="Rectangle-20" fill="#151719" x="0" y="0" width="96" height="96"></rect>
                    <g id="Circle-Outline" transform="translate(10.312500, 10.500000)">
                        <path d="M37.6875,75 C58.3981781,75 75.1875,58.2106781 75.1875,37.5 C75.1875,16.7893219 58.3981781,0 37.6875,0 C16.9768219,0 0.1875,16.7893219 0.1875,37.5 C0.1875,58.2106781 16.9768219,75 37.6875,75 L37.6875,75 Z M37.6875,63.75 C23.1900253,63.75 11.4375,51.9974747 11.4375,37.5 C11.4375,23.0025253 23.1900253,11.25 37.6875,11.25 C52.1849747,11.25 63.9375,23.0025253 63.9375,37.5 C63.9375,51.9974747 52.1849747,63.75 37.6875,63.75 L37.6875,63.75 Z" id="Shape" opacity="0.1" fill="#FFFFFF"></path>
                        <path d="M0.182194128,37.4947419 C0.176085765,44.0293511 1.87579676,50.4723105 5.21154736,56.25 L14.9543332,50.625 C12.6144376,46.5721821 11.427918,42.0745364 11.4321892,37.5052581 L0.182194128,37.4947419 L0.182194128,37.4947419 Z" id="Shape" fill="#FF4700"></path>
                        <path d="M4.88140415,55.6757539 C8.04410306,61.3940133 12.6543125,66.2051163 18.3729051,69.6411934 L24.1670835,59.9980613 C20.1557197,57.5877907 16.9374643,54.2292973 14.7259699,50.2308457 L4.88140415,55.6757539 L4.88140415,55.6757539 Z" id="Shape" fill="#3D5166"></path>
                        <path d="M70.1554875,56.2545444 C73.4280821,50.598461 75.1775688,44.1688391 75.1775688,37.4973379 L63.9275688,37.4973379 C63.9275688,42.1771289 62.7063021,46.6654642 60.417964,50.6204396 L70.1554875,56.2545444 L70.1554875,56.2545444 Z" id="Shape" fill="#FF4700"></path>
                        <path d="M56.9915905,69.646467 C62.5959899,66.2861304 67.2432681,61.5108243 70.4776761,55.6757979 L60.6382044,50.2216897 C58.3693967,54.3147271 55.1252646,57.6482318 51.2064288,59.9979229 L56.9915905,69.646467 L56.9915905,69.646467 Z" id="Shape" fill="#3D5166"></path>
                        <path d="M75.1875,37.5 C75.1875,16.7893219 58.3981781,0 37.6875,0 C16.9768219,0 0.1875,16.7893219 0.1875,37.5 L11.4375,37.5 C11.4375,23.0025253 23.1900253,11.25 37.6875,11.25 C52.1849747,11.25 63.9375,23.0025253 63.9375,37.5 L75.1875,37.5 L75.1875,37.5 Z" id="Shape" fill="#FFFFFF"></path>
                    </g>
                </g>
            </g>
        </g>
    </g>
</svg>