<?xml version="1.0" encoding="UTF-8" standalone="no"?>
<svg width="136px" height="24px" viewBox="0 0 136 24" version="1.1" xmlns="http://www.w3.org/2000/svg" xmlns:xlink="http://www.w3.org/1999/xlink" xmlns:sketch="http://www.bohemiancoding.com/sketch/ns">
    <!-- Generator: Sketch 3.3.1 (12005) - http://www.bohemiancoding.com/sketch -->
    <title>logo--dark</title>
    <desc>Created with Sketch.</desc>
    <defs></defs>
    <g id="Page-1" stroke="none" stroke-width="1" fill="none" fill-rule="evenodd" sketch:type="MSPage">
        <g id="Homepage" sketch:type="MSArtboardGroup" transform="translate(-629.000000, -216.000000)">
            <g id="Intro" sketch:type="MSLayerGroup">
                <g id="logo--dark" transform="translate(629.000000, 216.000000)" sketch:type="MSShapeGroup">
                    <path d="M16.3431733,23.3665116 L9.11179541,14.0550698 L1.6859499,14.0550698 L1.6859499,23.3665116 L0,23.3665116 L0,0.891348837 L9.5334238,0.891348837 C14.4300626,0.891348837 17.6401879,3.52409302 17.6401879,7.28037209 L17.6401879,7.34455814 C17.6401879,11.1013953 14.8189979,13.2524651 10.9927766,13.7665116 L18.4834447,23.3665116 L16.3431733,23.3665116 L16.3431733,23.3665116 Z M15.954238,7.34455814 C15.954238,4.32669767 13.5546764,2.43237209 9.43590814,2.43237209 L1.6859499,2.43237209 L1.6859499,12.5464186 L9.33895616,12.5464186 C13.133048,12.5464186 15.954238,10.652093 15.954238,7.40874419 L15.954238,7.34455814 L15.954238,7.34455814 Z" id="Fill-1" fill="#151719"></path>
                    <path d="M32.8853236,0.891348837 L34.5712735,0.891348837 L34.5712735,23.3670698 L32.8853236,23.3670698 L32.8853236,0.891348837 Z" id="Fill-2" fill="#151719"></path>
                    <path d="M48.941023,23.3665116 L48.941023,22.4355349 L64.4730689,2.4 L49.4917328,2.4 L49.4917328,0.891348837 L66.8726305,0.891348837 L66.8726305,1.82176744 L51.3405846,21.8578605 L66.8726305,21.8578605 L66.8726305,23.3665116 L48.941023,23.3665116" id="Fill-3" fill="#151719"></path>
                    <path d="M89.8446138,23.752186 C82.9706054,23.752186 78.4634656,18.3259535 78.4634656,12.1931163 L78.4634656,12.1289302 C78.4634656,5.99609302 83.0348643,0.505674419 89.91,0.505674419 C96.784572,0.505674419 101.291712,5.93190698 101.291712,12.0647442 C101.323841,12.0965581 101.323841,12.0965581 101.291712,12.1289302 C101.291712,18.2612093 96.7191858,23.752186 89.8446138,23.752186 L89.8446138,23.752186 Z M99.5403758,12.1289302 C99.5403758,6.57432558 95.4548643,2.01488372 89.8446138,2.01488372 C84.2349269,2.01488372 80.214238,6.51013953 80.214238,12.0647442 L80.214238,12.1289302 C80.214238,17.6835349 84.2997495,22.2429767 89.91,22.2429767 C95.5196868,22.2429767 99.5403758,17.7477209 99.5403758,12.1931163 L99.5403758,12.1289302 L99.5403758,12.1289302 Z" id="Fill-4" fill="#FF4800"></path>
                    <path d="M134.016952,23.3665116 L118.031148,3.39516279 L118.031148,23.3665116 L116.409457,23.3665116 L116.409457,0.891348837 L117.998455,0.891348837 L133.66071,20.4452093 L133.66071,0.891348837 L135.281837,0.891348837 L135.281837,23.3665116 L134.016952,23.3665116" id="Fill-5" fill="#151719"></path>
                </g>
            </g>
        </g>
    </g>
</svg>